<?xml version="1.0" encoding="UTF-8"?>
<svg xmlns="http://www.w3.org/2000/svg" xmlns:xlink="http://www.w3.org/1999/xlink" width="600pt" height="450pt" viewBox="0 0 600 450" version="1.1">
<defs>
<g>
<symbol overflow="visible" id="LUvXtUSi0-0">
<path style="stroke:none;" d="M -0.453125 0.859375 L 3.40625 -2.453125 L 6.703125 -0.5625 L 2.84375 2.75 Z M 0.15625 0.84375 L 2.71875 2.3125 L 6.09375 -0.578125 L 3.53125 -2.046875 Z M 0.15625 0.84375 "/>
</symbol>
<symbol overflow="visible" id="LUvXtUSi0-1">
<path style="stroke:none;" d="M 5 -1.3125 C 4.664063 -1.5 4.300781 -1.546875 3.90625 -1.453125 C 3.519531 -1.359375 3.109375 -1.125 2.671875 -0.75 C 2.234375 -0.363281 1.988281 -0.03125 1.9375 0.25 C 1.894531 0.53125 2.039063 0.765625 2.375 0.953125 C 2.707031 1.148438 3.066406 1.203125 3.453125 1.109375 C 3.847656 1.023438 4.265625 0.789063 4.703125 0.40625 C 5.140625 0.03125 5.378906 -0.296875 5.421875 -0.578125 C 5.472656 -0.867188 5.332031 -1.113281 5 -1.3125 Z M 5.34375 -1.59375 C 5.882813 -1.28125 6.15625 -0.921875 6.15625 -0.515625 C 6.15625 -0.117188 5.882813 0.304688 5.34375 0.765625 C 4.8125 1.222656 4.257813 1.492188 3.6875 1.578125 C 3.125 1.660156 2.570313 1.546875 2.03125 1.234375 C 1.488281 0.929688 1.21875 0.578125 1.21875 0.171875 C 1.226563 -0.234375 1.5 -0.664063 2.03125 -1.125 C 2.570313 -1.582031 3.125 -1.847656 3.6875 -1.921875 C 4.25 -2.003906 4.800781 -1.894531 5.34375 -1.59375 Z M 5.34375 -1.59375 "/>
</symbol>
<symbol overflow="visible" id="LUvXtUSi1-0">
<path style="stroke:none;" d="M -0.546875 0.953125 L 3.8125 -2.78125 L 7.171875 -0.65625 L 2.8125 3.078125 Z M 0.125 0.96875 L 2.71875 2.609375 L 6.515625 -0.65625 L 3.921875 -2.296875 Z M 0.125 0.96875 "/>
</symbol>
<symbol overflow="visible" id="LUvXtUSi1-1">
<path style="stroke:none;" d="M 1.6875 0.46875 L 4 1.921875 L 3.59375 2.265625 L 0.484375 0.3125 L 0.890625 -0.03125 C 1.335938 -0.0390625 1.9375 -0.046875 2.6875 -0.046875 C 3.445313 -0.046875 3.929688 -0.0507813 4.140625 -0.0625 C 4.523438 -0.09375 4.816406 -0.128906 5.015625 -0.171875 C 5.222656 -0.222656 5.390625 -0.296875 5.515625 -0.390625 C 5.703125 -0.554688 5.757813 -0.75 5.6875 -0.96875 C 5.625 -1.195313 5.453125 -1.398438 5.171875 -1.578125 C 4.960938 -1.710938 4.710938 -1.828125 4.421875 -1.921875 C 4.140625 -2.023438 3.820313 -2.117188 3.46875 -2.203125 L 3.953125 -2.609375 C 4.296875 -2.515625 4.597656 -2.410156 4.859375 -2.296875 C 5.128906 -2.179688 5.363281 -2.0625 5.5625 -1.9375 C 6.070313 -1.613281 6.378906 -1.273438 6.484375 -0.921875 C 6.597656 -0.578125 6.503906 -0.273438 6.203125 -0.015625 C 6.054688 0.109375 5.878906 0.203125 5.671875 0.265625 C 5.460938 0.335938 5.164063 0.390625 4.78125 0.421875 C 4.675781 0.429688 4.367188 0.4375 3.859375 0.4375 C 3.347656 0.445313 2.625 0.457031 1.6875 0.46875 Z M 1.6875 0.46875 "/>
</symbol>
<symbol overflow="visible" id="LUvXtUSi2-0">
<path style="stroke:none;" d="M -0.640625 1.09375 L 4.28125 -3.140625 L 7.671875 -0.75 L 2.75 3.484375 Z M 0.046875 1.078125 L 2.6875 2.953125 L 6.984375 -0.75 L 4.34375 -2.625 Z M 0.046875 1.078125 "/>
</symbol>
<symbol overflow="visible" id="LUvXtUSi2-1">
<path style="stroke:none;" d="M 6.171875 -1.28125 L 2.296875 -0.59375 L 3.984375 0.59375 Z M 6.46875 -1.796875 L 7.3125 -1.203125 L 4.65625 1.078125 L 5.359375 1.5625 L 4.90625 1.953125 L 4.203125 1.46875 L 3.234375 2.296875 L 2.5625 1.8125 L 3.53125 0.984375 L 1.296875 -0.59375 L 1.8125 -1.046875 Z M 6.46875 -1.796875 "/>
</symbol>
<symbol overflow="visible" id="LUvXtUSi3-0">
<path style="stroke:none;" d="M -0.796875 1.25 L 4.859375 -3.59375 L 8.296875 -0.84375 L 2.640625 4 Z M -0.03125 1.25 L 2.625 3.375 L 7.546875 -0.859375 L 4.890625 -2.984375 Z M -0.03125 1.25 "/>
</symbol>
<symbol overflow="visible" id="LUvXtUSi3-1">
<path style="stroke:none;" d="M 4.84375 -0.40625 C 4.53125 -0.644531 4.191406 -0.75 3.828125 -0.71875 C 3.460938 -0.695313 3.113281 -0.539063 2.78125 -0.25 C 2.4375 0.0390625 2.253906 0.335938 2.234375 0.640625 C 2.210938 0.941406 2.359375 1.210938 2.671875 1.453125 C 2.972656 1.703125 3.304688 1.816406 3.671875 1.796875 C 4.046875 1.773438 4.40625 1.617188 4.75 1.328125 C 5.082031 1.035156 5.253906 0.734375 5.265625 0.421875 C 5.285156 0.117188 5.144531 -0.15625 4.84375 -0.40625 Z M 8.171875 -1.03125 L 7.59375 -0.53125 C 7.488281 -0.726563 7.375 -0.910156 7.25 -1.078125 C 7.125 -1.253906 6.972656 -1.410156 6.796875 -1.546875 C 6.347656 -1.910156 5.863281 -2.066406 5.34375 -2.015625 C 4.832031 -1.960938 4.273438 -1.707031 3.671875 -1.25 C 3.992188 -1.300781 4.300781 -1.285156 4.59375 -1.203125 C 4.894531 -1.128906 5.160156 -1 5.390625 -0.8125 C 5.898438 -0.40625 6.15625 0.0351563 6.15625 0.515625 C 6.164063 0.992188 5.925781 1.445313 5.4375 1.875 C 4.957031 2.28125 4.414063 2.484375 3.8125 2.484375 C 3.21875 2.492188 2.671875 2.296875 2.171875 1.890625 C 1.597656 1.429688 1.359375 0.898438 1.453125 0.296875 C 1.554688 -0.304688 2.003906 -0.945313 2.796875 -1.625 C 3.535156 -2.257813 4.3125 -2.609375 5.125 -2.671875 C 5.945313 -2.742188 6.671875 -2.53125 7.296875 -2.03125 C 7.460938 -1.894531 7.617188 -1.742188 7.765625 -1.578125 C 7.910156 -1.410156 8.046875 -1.226563 8.171875 -1.03125 Z M 8.171875 -1.03125 "/>
</symbol>
<symbol overflow="visible" id="LUvXtUSi4-0">
<path style="stroke:none;" d="M -0.96875 1.4375 L 5.5625 -4.171875 L 8.984375 -0.984375 L 2.453125 4.625 Z M -0.171875 1.4375 L 2.5 3.90625 L 8.203125 -0.984375 L 5.53125 -3.453125 Z M -0.171875 1.4375 "/>
</symbol>
<symbol overflow="visible" id="LUvXtUSi4-1">
<path style="stroke:none;" d="M 4.734375 -0.1875 C 4.421875 -0.476563 4.078125 -0.628906 3.703125 -0.640625 C 3.328125 -0.648438 2.976563 -0.515625 2.65625 -0.234375 C 2.332031 0.046875 2.171875 0.347656 2.171875 0.671875 C 2.179688 1.003906 2.34375 1.316406 2.65625 1.609375 C 2.988281 1.910156 3.335938 2.066406 3.703125 2.078125 C 4.066406 2.085938 4.410156 1.957031 4.734375 1.6875 C 5.054688 1.40625 5.21875 1.097656 5.21875 0.765625 C 5.226563 0.429688 5.066406 0.113281 4.734375 -0.1875 Z M 4.375 -1.078125 C 4.164063 -1.421875 4.085938 -1.753906 4.140625 -2.078125 C 4.191406 -2.410156 4.375 -2.710938 4.6875 -2.984375 C 5.113281 -3.347656 5.59375 -3.503906 6.125 -3.453125 C 6.664063 -3.410156 7.179688 -3.160156 7.671875 -2.703125 C 8.179688 -2.234375 8.453125 -1.757813 8.484375 -1.28125 C 8.515625 -0.8125 8.316406 -0.394531 7.890625 -0.03125 C 7.578125 0.238281 7.234375 0.390625 6.859375 0.421875 C 6.484375 0.460938 6.109375 0.382813 5.734375 0.1875 C 5.972656 0.550781 6.066406 0.921875 6.015625 1.296875 C 5.960938 1.671875 5.757813 2.007813 5.40625 2.3125 C 4.882813 2.75 4.335938 2.953125 3.765625 2.921875 C 3.191406 2.898438 2.625 2.628906 2.0625 2.109375 C 1.519531 1.597656 1.238281 1.082031 1.21875 0.5625 C 1.207031 0.0507813 1.460938 -0.421875 1.984375 -0.859375 C 2.335938 -1.160156 2.722656 -1.328125 3.140625 -1.359375 C 3.554688 -1.398438 3.96875 -1.304688 4.375 -1.078125 Z M 5.296875 -2.296875 C 5.015625 -2.054688 4.875 -1.789063 4.875 -1.5 C 4.875 -1.21875 5.019531 -0.941406 5.3125 -0.671875 C 5.601563 -0.398438 5.910156 -0.257813 6.234375 -0.25 C 6.554688 -0.238281 6.859375 -0.351563 7.140625 -0.59375 C 7.421875 -0.832031 7.554688 -1.09375 7.546875 -1.375 C 7.535156 -1.65625 7.382813 -1.929688 7.09375 -2.203125 C 6.800781 -2.472656 6.5 -2.613281 6.1875 -2.625 C 5.875 -2.644531 5.578125 -2.535156 5.296875 -2.296875 Z M 5.296875 -2.296875 "/>
</symbol>
<symbol overflow="visible" id="LUvXtUSi5-0">
<path style="stroke:none;" d="M -0.734375 1.296875 L 4.984375 -3.75 L 9.15625 -0.875 L 3.4375 4.171875 Z M 0.109375 1.296875 L 3.34375 3.515625 L 8.34375 -0.890625 L 5.109375 -3.109375 Z M 0.109375 1.296875 "/>
</symbol>
<symbol overflow="visible" id="LUvXtUSi5-1">
<path style="stroke:none;" d="M 8.109375 0.015625 L 4.75 0.40625 L 4.65625 3.203125 L 3.765625 2.59375 L 3.859375 0.453125 L 1.125 0.765625 L 0.25 0.171875 L 3.875 -0.265625 L 3.9375 -2.859375 L 4.828125 -2.25 L 4.765625 -0.3125 L 7.234375 -0.578125 Z M 8.109375 0.015625 "/>
</symbol>
<symbol overflow="visible" id="LUvXtUSi6-0">
<path style="stroke:none;" d="M 1.140625 0.5625 L -2.84375 -3.25 L 0.703125 -5.375 L 4.6875 -1.5625 Z M 1.296875 0.078125 L 4.046875 -1.5625 L 0.5625 -4.890625 L -2.1875 -3.25 Z M 1.296875 0.078125 "/>
</symbol>
<symbol overflow="visible" id="LUvXtUSi6-1">
<path style="stroke:none;" d="M -0.75 -4.203125 C -1.101563 -3.992188 -1.257813 -3.726563 -1.21875 -3.40625 C -1.175781 -3.082031 -0.925781 -2.703125 -0.46875 -2.265625 C -0.0195313 -1.835938 0.40625 -1.570313 0.8125 -1.46875 C 1.21875 -1.363281 1.597656 -1.414063 1.953125 -1.625 C 2.304688 -1.84375 2.460938 -2.113281 2.421875 -2.4375 C 2.390625 -2.757813 2.148438 -3.132813 1.703125 -3.5625 C 1.242188 -4 0.804688 -4.269531 0.390625 -4.375 C -0.015625 -4.476563 -0.394531 -4.421875 -0.75 -4.203125 Z M -1.109375 -4.546875 C -0.523438 -4.898438 0.0625 -5.03125 0.65625 -4.9375 C 1.25 -4.84375 1.828125 -4.523438 2.390625 -3.984375 C 2.941406 -3.453125 3.210938 -2.957031 3.203125 -2.5 C 3.191406 -2.039063 2.894531 -1.632813 2.3125 -1.28125 C 1.726563 -0.9375 1.140625 -0.8125 0.546875 -0.90625 C -0.046875 -1 -0.617188 -1.3125 -1.171875 -1.84375 C -1.734375 -2.382813 -2.007813 -2.882813 -2 -3.34375 C -1.988281 -3.800781 -1.691406 -4.203125 -1.109375 -4.546875 Z M -1.109375 -4.546875 "/>
</symbol>
<symbol overflow="visible" id="LUvXtUSi7-0">
<path style="stroke:none;" d="M 1.21875 0.59375 L -3.046875 -3.453125 L 0.515625 -5.703125 L 4.78125 -1.65625 Z M 1.328125 0.09375 L 4.109375 -1.65625 L 0.40625 -5.1875 L -2.375 -3.4375 Z M 1.328125 0.09375 "/>
</symbol>
<symbol overflow="visible" id="LUvXtUSi7-1">
<path style="stroke:none;" d="M 0.5 -0.9375 L 1.640625 -1.65625 L -1.046875 -4.21875 L -2.125 -3.25 L -2.578125 -3.671875 L -1.5 -4.625 L -0.78125 -5.0625 L 2.34375 -2.09375 L 3.5 -2.828125 L 3.890625 -2.453125 L 0.890625 -0.5625 Z M 0.5 -0.9375 "/>
</symbol>
<symbol overflow="visible" id="LUvXtUSi8-0">
<path style="stroke:none;" d="M 1.265625 0.609375 L -3.265625 -3.703125 L 0.34375 -6.09375 L 4.875 -1.78125 Z M 1.390625 0.078125 L 4.1875 -1.78125 L 0.234375 -5.546875 L -2.5625 -3.6875 Z M 1.390625 0.078125 "/>
</symbol>
<symbol overflow="visible" id="LUvXtUSi8-1">
<path style="stroke:none;" d="M 0.96875 -1.328125 L 3.453125 -2.984375 L 3.875 -2.578125 L 0.53125 -0.359375 L 0.109375 -0.765625 C 0.171875 -1.140625 0.265625 -1.632813 0.390625 -2.25 C 0.523438 -2.875 0.609375 -3.273438 0.640625 -3.453125 C 0.691406 -3.785156 0.695313 -4.039063 0.65625 -4.21875 C 0.613281 -4.394531 0.53125 -4.539063 0.40625 -4.65625 C 0.207031 -4.851563 -0.0507813 -4.941406 -0.375 -4.921875 C -0.695313 -4.910156 -1.015625 -4.800781 -1.328125 -4.59375 C -1.546875 -4.445313 -1.753906 -4.265625 -1.953125 -4.046875 C -2.148438 -3.828125 -2.328125 -3.570313 -2.484375 -3.28125 L -3 -3.765625 C -2.800781 -4.035156 -2.59375 -4.273438 -2.375 -4.484375 C -2.164063 -4.691406 -1.957031 -4.867188 -1.75 -5.015625 C -1.207031 -5.367188 -0.675781 -5.554688 -0.15625 -5.578125 C 0.351563 -5.609375 0.769531 -5.472656 1.09375 -5.171875 C 1.25 -5.015625 1.359375 -4.84375 1.421875 -4.65625 C 1.484375 -4.476563 1.492188 -4.234375 1.453125 -3.921875 C 1.441406 -3.835938 1.394531 -3.578125 1.3125 -3.140625 C 1.226563 -2.710938 1.113281 -2.109375 0.96875 -1.328125 Z M 0.96875 -1.328125 "/>
</symbol>
<symbol overflow="visible" id="LUvXtUSi9-0">
<path style="stroke:none;" d="M 1.328125 0.671875 L -3.515625 -3.9375 L 0.125 -6.5 L 4.96875 -1.890625 Z M 1.4375 0.09375 L 4.28125 -1.890625 L 0.03125 -5.9375 L -2.8125 -3.953125 Z M 1.4375 0.09375 "/>
</symbol>
<symbol overflow="visible" id="LUvXtUSi9-1">
<path style="stroke:none;" d="M 0.796875 -4.125 C 1.191406 -4.332031 1.570313 -4.421875 1.9375 -4.390625 C 2.300781 -4.359375 2.613281 -4.21875 2.875 -3.96875 C 3.269531 -3.59375 3.394531 -3.171875 3.25 -2.703125 C 3.113281 -2.242188 2.710938 -1.78125 2.046875 -1.3125 C 1.828125 -1.15625 1.582031 -1.007813 1.3125 -0.875 C 1.050781 -0.738281 0.757813 -0.613281 0.4375 -0.5 L -0.09375 -1 C 0.195313 -1.0625 0.484375 -1.148438 0.765625 -1.265625 C 1.046875 -1.390625 1.316406 -1.546875 1.578125 -1.734375 C 2.023438 -2.054688 2.296875 -2.363281 2.390625 -2.65625 C 2.492188 -2.945313 2.414063 -3.210938 2.15625 -3.453125 C 1.914063 -3.679688 1.625 -3.78125 1.28125 -3.75 C 0.9375 -3.726563 0.566406 -3.578125 0.171875 -3.296875 L -0.453125 -2.859375 L -0.890625 -3.28125 L -0.234375 -3.75 C 0.109375 -3.988281 0.316406 -4.226563 0.390625 -4.46875 C 0.472656 -4.707031 0.414063 -4.921875 0.21875 -5.109375 C 0.0078125 -5.304688 -0.242188 -5.390625 -0.546875 -5.359375 C -0.847656 -5.328125 -1.175781 -5.179688 -1.53125 -4.921875 C -1.726563 -4.785156 -1.921875 -4.625 -2.109375 -4.4375 C -2.304688 -4.25 -2.503906 -4.023438 -2.703125 -3.765625 L -3.1875 -4.21875 C -2.976563 -4.476563 -2.765625 -4.703125 -2.546875 -4.890625 C -2.335938 -5.085938 -2.128906 -5.257813 -1.921875 -5.40625 C -1.378906 -5.789063 -0.851563 -6.003906 -0.34375 -6.046875 C 0.15625 -6.085938 0.5625 -5.960938 0.875 -5.671875 C 1.09375 -5.453125 1.195313 -5.207031 1.1875 -4.9375 C 1.175781 -4.675781 1.046875 -4.40625 0.796875 -4.125 Z M 0.796875 -4.125 "/>
</symbol>
<symbol overflow="visible" id="LUvXtUSi10-0">
<path style="stroke:none;" d="M 1.40625 0.734375 L -3.796875 -4.21875 L -0.109375 -6.984375 L 5.09375 -2.03125 Z M 1.5 0.09375 L 4.34375 -2.046875 L -0.203125 -6.375 L -3.046875 -4.234375 Z M 1.5 0.09375 "/>
</symbol>
<symbol overflow="visible" id="LUvXtUSi10-1">
<path style="stroke:none;" d="M -1.015625 -5.703125 L -0.546875 -2.15625 L 1.28125 -3.515625 Z M -1.703125 -6.03125 L -0.8125 -6.703125 L 1.984375 -4.046875 L 2.765625 -4.625 L 3.25 -4.15625 L 2.46875 -3.578125 L 3.484375 -2.609375 L 2.78125 -2.078125 L 1.765625 -3.046875 L -0.65625 -1.234375 L -1.21875 -1.765625 Z M -1.703125 -6.03125 "/>
</symbol>
<symbol overflow="visible" id="LUvXtUSi11-0">
<path style="stroke:none;" d="M 1.484375 0.765625 L -4.109375 -4.546875 L -0.40625 -7.5 L 5.1875 -2.1875 Z M 1.546875 0.109375 L 4.421875 -2.1875 L -0.453125 -6.828125 L -3.328125 -4.53125 Z M 1.546875 0.109375 "/>
</symbol>
<symbol overflow="visible" id="LUvXtUSi11-1">
<path style="stroke:none;" d="M -3.8125 -5.03125 L -0.953125 -7.3125 L -0.4375 -6.8125 L -2.625 -5.0625 L -1.484375 -3.984375 C -1.410156 -4.097656 -1.328125 -4.203125 -1.234375 -4.296875 C -1.148438 -4.398438 -1.054688 -4.492188 -0.953125 -4.578125 C -0.347656 -5.066406 0.265625 -5.3125 0.890625 -5.3125 C 1.523438 -5.320313 2.082031 -5.097656 2.5625 -4.640625 C 3.0625 -4.171875 3.269531 -3.660156 3.1875 -3.109375 C 3.101563 -2.554688 2.734375 -2.019531 2.078125 -1.5 C 1.847656 -1.3125 1.597656 -1.140625 1.328125 -0.984375 C 1.054688 -0.835938 0.769531 -0.691406 0.46875 -0.546875 L -0.15625 -1.15625 C 0.15625 -1.226563 0.453125 -1.332031 0.734375 -1.46875 C 1.015625 -1.601563 1.285156 -1.773438 1.546875 -1.984375 C 1.953125 -2.316406 2.179688 -2.671875 2.234375 -3.046875 C 2.296875 -3.421875 2.164063 -3.757813 1.84375 -4.0625 C 1.519531 -4.375 1.140625 -4.519531 0.703125 -4.5 C 0.273438 -4.488281 -0.140625 -4.316406 -0.546875 -3.984375 C -0.742188 -3.828125 -0.921875 -3.648438 -1.078125 -3.453125 C -1.234375 -3.265625 -1.375 -3.054688 -1.5 -2.828125 Z M -3.8125 -5.03125 "/>
</symbol>
<symbol overflow="visible" id="LUvXtUSi12-0">
<path style="stroke:none;" d="M 1.578125 0.828125 L -4.4375 -4.890625 L -0.734375 -8.078125 L 5.28125 -2.359375 Z M 1.609375 0.125 L 4.5 -2.34375 L -0.75 -7.359375 L -3.640625 -4.890625 Z M 1.609375 0.125 "/>
</symbol>
<symbol overflow="visible" id="LUvXtUSi12-1">
<path style="stroke:none;" d="M -0.296875 -4.71875 C -0.628906 -4.4375 -0.789063 -4.113281 -0.78125 -3.75 C -0.769531 -3.382813 -0.582031 -3.03125 -0.21875 -2.6875 C 0.132813 -2.34375 0.507813 -2.15625 0.90625 -2.125 C 1.3125 -2.09375 1.679688 -2.21875 2.015625 -2.5 C 2.335938 -2.78125 2.488281 -3.097656 2.46875 -3.453125 C 2.457031 -3.816406 2.273438 -4.171875 1.921875 -4.515625 C 1.554688 -4.859375 1.175781 -5.046875 0.78125 -5.078125 C 0.382813 -5.117188 0.0234375 -5 -0.296875 -4.71875 Z M -0.96875 -7.984375 L -0.34375 -7.390625 C -0.613281 -7.296875 -0.863281 -7.191406 -1.09375 -7.078125 C -1.320313 -6.960938 -1.523438 -6.828125 -1.703125 -6.671875 C -2.191406 -6.253906 -2.410156 -5.796875 -2.359375 -5.296875 C -2.304688 -4.796875 -2 -4.238281 -1.4375 -3.625 C -1.5 -3.9375 -1.472656 -4.226563 -1.359375 -4.5 C -1.242188 -4.78125 -1.050781 -5.035156 -0.78125 -5.265625 C -0.238281 -5.722656 0.335938 -5.941406 0.953125 -5.921875 C 1.566406 -5.910156 2.132813 -5.65625 2.65625 -5.15625 C 3.164063 -4.675781 3.410156 -4.144531 3.390625 -3.5625 C 3.367188 -2.988281 3.085938 -2.46875 2.546875 -2 C 1.910156 -1.46875 1.207031 -1.269531 0.4375 -1.40625 C -0.332031 -1.550781 -1.132813 -2.019531 -1.96875 -2.8125 C -2.75 -3.5625 -3.171875 -4.328125 -3.234375 -5.109375 C -3.296875 -5.898438 -2.984375 -6.585938 -2.296875 -7.171875 C -2.109375 -7.328125 -1.90625 -7.472656 -1.6875 -7.609375 C -1.476563 -7.742188 -1.238281 -7.867188 -0.96875 -7.984375 Z M -0.96875 -7.984375 "/>
</symbol>
<symbol overflow="visible" id="LUvXtUSi13-0">
<path style="stroke:none;" d="M 1.609375 0.84375 L -4.1875 -4.890625 L 0.3125 -8.078125 L 6.109375 -2.34375 Z M 1.75 0.125 L 5.234375 -2.34375 L 0.171875 -7.359375 L -3.3125 -4.890625 Z M 1.75 0.125 "/>
</symbol>
<symbol overflow="visible" id="LUvXtUSi13-1">
<path style="stroke:none;" d="M 3.25 -1.71875 C 3.4375 -1.125 3.484375 -0.6875 3.390625 -0.40625 C 3.304688 -0.132813 3.082031 0.128906 2.71875 0.390625 L 2.078125 0.84375 L 1.59375 0.359375 L 2.0625 0.015625 C 2.28125 -0.140625 2.410156 -0.296875 2.453125 -0.453125 C 2.503906 -0.609375 2.46875 -0.882813 2.34375 -1.28125 L 2.203125 -1.65625 L -3.34375 -3.75 L -2.484375 -4.359375 L 1.890625 -2.640625 L 0.59375 -6.53125 L 1.453125 -7.125 Z M 3.25 -1.71875 "/>
</symbol>
<symbol overflow="visible" id="LUvXtUSi14-0">
<path style="stroke:none;" d="M 0.578125 0.84375 L -0.609375 -4.375 L 3 -6.46875 L 4.1875 -1.25 Z M 0.921875 0.28125 L 3.71875 -1.34375 L 2.65625 -5.90625 L -0.140625 -4.28125 Z M 0.921875 0.28125 "/>
</symbol>
<symbol overflow="visible" id="LUvXtUSi14-1">
<path style="stroke:none;" d="M 1.265625 -1.296875 L 3.734375 -2.734375 L 3.84375 -2.234375 L 0.53125 -0.3125 L 0.421875 -0.8125 C 0.640625 -1.1875 0.9375 -1.703125 1.3125 -2.359375 C 1.6875 -3.015625 1.914063 -3.4375 2 -3.625 C 2.175781 -3.957031 2.289063 -4.222656 2.34375 -4.421875 C 2.40625 -4.617188 2.421875 -4.785156 2.390625 -4.921875 C 2.335938 -5.148438 2.195313 -5.28125 1.96875 -5.3125 C 1.75 -5.351563 1.476563 -5.28125 1.15625 -5.09375 C 0.945313 -4.96875 0.722656 -4.800781 0.484375 -4.59375 C 0.242188 -4.394531 0 -4.144531 -0.25 -3.84375 L -0.390625 -4.4375 C -0.128906 -4.695313 0.117188 -4.921875 0.359375 -5.109375 C 0.597656 -5.304688 0.820313 -5.46875 1.03125 -5.59375 C 1.5625 -5.90625 2.015625 -6.039063 2.390625 -6 C 2.773438 -5.96875 3.007813 -5.765625 3.09375 -5.390625 C 3.132813 -5.210938 3.128906 -5.019531 3.078125 -4.8125 C 3.035156 -4.601563 2.9375 -4.332031 2.78125 -4 C 2.726563 -3.90625 2.578125 -3.632813 2.328125 -3.1875 C 2.078125 -2.738281 1.722656 -2.109375 1.265625 -1.296875 Z M 1.265625 -1.296875 "/>
</symbol>
<symbol overflow="visible" id="LUvXtUSi15-0">
<path style="stroke:none;" d="M 0.671875 0.984375 L -0.703125 -4.953125 L 3.171875 -6.96875 L 4.546875 -1.03125 Z M 1 0.390625 L 4.03125 -1.1875 L 2.828125 -6.375 L -0.203125 -4.796875 Z M 1 0.390625 "/>
</symbol>
<symbol overflow="visible" id="LUvXtUSi15-1">
<path style="stroke:none;" d="M 1.9375 -5.875 L 0.609375 -2.234375 L 2.546875 -3.25 Z M 1.609375 -6.34375 L 2.5625 -6.84375 L 3.3125 -3.640625 L 4.109375 -4.0625 L 4.234375 -3.5 L 3.4375 -3.078125 L 3.703125 -1.921875 L 2.9375 -1.53125 L 2.671875 -2.6875 L 0.109375 -1.34375 L -0.046875 -2 Z M 1.609375 -6.34375 "/>
</symbol>
<symbol overflow="visible" id="LUvXtUSi16-0">
<path style="stroke:none;" d="M 0.71875 1.171875 L -0.84375 -5.625 L 3.375 -7.53125 L 4.9375 -0.734375 Z M 1.109375 0.53125 L 4.390625 -0.9375 L 3.015625 -6.890625 L -0.265625 -5.421875 Z M 1.109375 0.53125 "/>
</symbol>
<symbol overflow="visible" id="LUvXtUSi16-1">
<path style="stroke:none;" d="M 2.0625 -4.375 C 1.6875 -4.207031 1.414063 -3.957031 1.25 -3.625 C 1.082031 -3.289063 1.046875 -2.914063 1.140625 -2.5 C 1.234375 -2.101563 1.414063 -1.835938 1.6875 -1.703125 C 1.96875 -1.566406 2.296875 -1.582031 2.671875 -1.75 C 3.046875 -1.925781 3.3125 -2.179688 3.46875 -2.515625 C 3.632813 -2.847656 3.671875 -3.210938 3.578125 -3.609375 C 3.484375 -4.023438 3.300781 -4.300781 3.03125 -4.4375 C 2.757813 -4.570313 2.4375 -4.550781 2.0625 -4.375 Z M 3.15625 -7.5 L 3.3125 -6.8125 C 3.082031 -6.800781 2.859375 -6.773438 2.640625 -6.734375 C 2.421875 -6.691406 2.207031 -6.625 2 -6.53125 C 1.445313 -6.28125 1.066406 -5.914063 0.859375 -5.4375 C 0.648438 -4.96875 0.597656 -4.382813 0.703125 -3.6875 C 0.816406 -3.976563 0.984375 -4.234375 1.203125 -4.453125 C 1.421875 -4.679688 1.675781 -4.863281 1.96875 -5 C 2.59375 -5.28125 3.117188 -5.328125 3.546875 -5.140625 C 3.984375 -4.953125 4.269531 -4.5625 4.40625 -3.96875 C 4.539063 -3.394531 4.460938 -2.847656 4.171875 -2.328125 C 3.890625 -1.816406 3.4375 -1.421875 2.8125 -1.140625 C 2.101563 -0.828125 1.5 -0.832031 1 -1.15625 C 0.507813 -1.476563 0.15625 -2.117188 -0.0625 -3.078125 C -0.269531 -3.960938 -0.207031 -4.773438 0.125 -5.515625 C 0.46875 -6.253906 1.03125 -6.796875 1.8125 -7.140625 C 2.019531 -7.234375 2.234375 -7.3125 2.453125 -7.375 C 2.679688 -7.4375 2.914063 -7.476563 3.15625 -7.5 Z M 3.15625 -7.5 "/>
</symbol>
<symbol overflow="visible" id="LUvXtUSi17-0">
<path style="stroke:none;" d="M 0.8125 1.40625 L -1 -6.46875 L 3.609375 -8.1875 L 5.421875 -0.3125 Z M 1.234375 0.703125 L 4.796875 -0.625 L 3.203125 -7.515625 L -0.359375 -6.1875 Z M 1.234375 0.703125 "/>
</symbol>
<symbol overflow="visible" id="LUvXtUSi17-1">
<path style="stroke:none;" d="M 2.203125 -4.1875 C 1.773438 -4.03125 1.460938 -3.789063 1.265625 -3.46875 C 1.066406 -3.15625 1.015625 -2.800781 1.109375 -2.40625 C 1.203125 -2.019531 1.398438 -1.757813 1.703125 -1.625 C 2.003906 -1.488281 2.367188 -1.5 2.796875 -1.65625 C 3.234375 -1.820313 3.550781 -2.066406 3.75 -2.390625 C 3.945313 -2.710938 4 -3.066406 3.90625 -3.453125 C 3.8125 -3.847656 3.613281 -4.109375 3.3125 -4.234375 C 3.007813 -4.367188 2.640625 -4.351563 2.203125 -4.1875 Z M 1.21875 -4.21875 C 0.8125 -4.164063 0.46875 -4.226563 0.1875 -4.40625 C -0.0820313 -4.59375 -0.257813 -4.875 -0.34375 -5.25 C -0.46875 -5.769531 -0.375 -6.25 -0.0625 -6.6875 C 0.25 -7.132813 0.734375 -7.484375 1.390625 -7.734375 C 2.066406 -7.984375 2.628906 -8.03125 3.078125 -7.875 C 3.523438 -7.71875 3.8125 -7.378906 3.9375 -6.859375 C 4.019531 -6.484375 3.984375 -6.125 3.828125 -5.78125 C 3.671875 -5.4375 3.410156 -5.144531 3.046875 -4.90625 C 3.503906 -4.96875 3.890625 -4.898438 4.203125 -4.703125 C 4.515625 -4.515625 4.71875 -4.210938 4.8125 -3.796875 C 4.957031 -3.171875 4.867188 -2.613281 4.546875 -2.125 C 4.222656 -1.632813 3.691406 -1.25 2.953125 -0.96875 C 2.210938 -0.695313 1.601563 -0.65625 1.125 -0.84375 C 0.65625 -1.03125 0.347656 -1.4375 0.203125 -2.0625 C 0.109375 -2.476563 0.148438 -2.875 0.328125 -3.25 C 0.503906 -3.632813 0.800781 -3.957031 1.21875 -4.21875 Z M 0.5625 -5.5 C 0.644531 -5.15625 0.816406 -4.929688 1.078125 -4.828125 C 1.335938 -4.722656 1.660156 -4.742188 2.046875 -4.890625 C 2.441406 -5.035156 2.726563 -5.242188 2.90625 -5.515625 C 3.082031 -5.785156 3.128906 -6.09375 3.046875 -6.4375 C 2.972656 -6.769531 2.804688 -6.984375 2.546875 -7.078125 C 2.285156 -7.179688 1.957031 -7.160156 1.5625 -7.015625 C 1.175781 -6.867188 0.894531 -6.660156 0.71875 -6.390625 C 0.539063 -6.128906 0.488281 -5.832031 0.5625 -5.5 Z M 0.5625 -5.5 "/>
</symbol>
<symbol overflow="visible" id="LUvXtUSi18-0">
<path style="stroke:none;" d="M 0.84375 1.21875 L -0.984375 -6.109375 L 3.875 -8.5625 L 5.703125 -1.234375 Z M 1.28125 0.5 L 5.046875 -1.421875 L 3.453125 -7.828125 L -0.3125 -5.90625 Z M 1.28125 0.5 "/>
</symbol>
<symbol overflow="visible" id="LUvXtUSi18-1">
<path style="stroke:none;" d="M -0.59375 -4.8125 L 3.5625 -6.921875 L 3.71875 -6.234375 L 1.25 -1.296875 L 4.546875 -2.96875 L 4.6875 -2.375 L 0.421875 -0.21875 L 0.25 -0.90625 L 2.703125 -5.828125 L -0.453125 -4.21875 Z M -0.59375 -4.8125 "/>
</symbol>
</g>
</defs>
<g id="surface1">
<rect x="0" y="0" width="600" height="450" style="fill:rgb(100%,100%,100%);fill-opacity:1;stroke:none;"/>
<g style="fill:rgb(50%,50%,50%);fill-opacity:0.6;">
  <use xlink:href="#LUvXtUSi0-1" x="426.402344" y="293.914063"/>
</g>
<g style="fill:rgb(50%,50%,50%);fill-opacity:0.6;">
  <use xlink:href="#LUvXtUSi1-1" x="395.644531" y="320.265625"/>
</g>
<g style="fill:rgb(50%,50%,50%);fill-opacity:0.6;">
  <use xlink:href="#LUvXtUSi2-1" x="361.113281" y="350.191406"/>
</g>
<g style="fill:rgb(50%,50%,50%);fill-opacity:0.6;">
  <use xlink:href="#LUvXtUSi3-1" x="321.453125" y="384.042969"/>
</g>
<g style="fill:rgb(50%,50%,50%);fill-opacity:0.6;">
  <use xlink:href="#LUvXtUSi4-1" x="276.050781" y="423.074219"/>
</g>
<g style="fill:rgb(0%,0%,0%);fill-opacity:1;">
  <use xlink:href="#LUvXtUSi5-1" x="377.605469" y="348.046875"/>
</g>
<g style="fill:rgb(50%,50%,50%);fill-opacity:0.6;">
  <use xlink:href="#LUvXtUSi6-1" x="156.390625" y="324.269531"/>
</g>
<g style="fill:rgb(50%,50%,50%);fill-opacity:0.6;">
  <use xlink:href="#LUvXtUSi7-1" x="172.328125" y="338.644531"/>
</g>
<g style="fill:rgb(50%,50%,50%);fill-opacity:0.6;">
  <use xlink:href="#LUvXtUSi8-1" x="188.566406" y="354.417969"/>
</g>
<g style="fill:rgb(50%,50%,50%);fill-opacity:0.6;">
  <use xlink:href="#LUvXtUSi9-1" x="206" y="371.207031"/>
</g>
<g style="fill:rgb(50%,50%,50%);fill-opacity:0.6;">
  <use xlink:href="#LUvXtUSi10-1" x="224.410156" y="389.371094"/>
</g>
<g style="fill:rgb(50%,50%,50%);fill-opacity:0.6;">
  <use xlink:href="#LUvXtUSi11-1" x="245.011719" y="408.21875"/>
</g>
<g style="fill:rgb(50%,50%,50%);fill-opacity:0.6;">
  <use xlink:href="#LUvXtUSi12-1" x="266.449219" y="429.042969"/>
</g>
<g style="fill:rgb(0%,0%,0%);fill-opacity:1;">
  <use xlink:href="#LUvXtUSi13-1" x="194.839844" y="379.703125"/>
</g>
<g style="fill:rgb(50%,50%,50%);fill-opacity:0.6;">
  <use xlink:href="#LUvXtUSi14-1" x="152.773438" y="312.351563"/>
</g>
<g style="fill:rgb(50%,50%,50%);fill-opacity:0.6;">
  <use xlink:href="#LUvXtUSi15-1" x="142.453125" y="270.113281"/>
</g>
<g style="fill:rgb(50%,50%,50%);fill-opacity:0.6;">
  <use xlink:href="#LUvXtUSi16-1" x="131.46875" y="221.421875"/>
</g>
<g style="fill:rgb(50%,50%,50%);fill-opacity:0.6;">
  <use xlink:href="#LUvXtUSi17-1" x="118.582031" y="165.378906"/>
</g>
<g style="fill:rgb(0%,0%,0%);fill-opacity:1;">
  <use xlink:href="#LUvXtUSi18-1" x="129.441406" y="267.699219"/>
</g>
<path style="fill:none;stroke-width:1.5;stroke-linecap:round;stroke-linejoin:miter;stroke:rgb(0%,0%,0%);stroke-opacity:1;stroke-miterlimit:10;" d="M 428.807292 298.005208 L 219.203125 422.807292 " transform="matrix(0.75,0,0,0.75,0,0)"/>
<path style="fill:none;stroke-width:1;stroke-linecap:round;stroke-linejoin:miter;stroke:rgb(50%,50%,50%);stroke-opacity:0.4;stroke-miterlimit:10;" d="M 428.807292 298.005208 L 219.203125 422.807292 " transform="matrix(0.75,0,0,0.75,0,0)"/>
<path style="fill:none;stroke-width:1;stroke-linecap:round;stroke-linejoin:miter;stroke:rgb(50%,50%,50%);stroke-opacity:0.4;stroke-miterlimit:10;" d="M 450.223958 309.911458 L 239.78125 441.78125 " transform="matrix(0.75,0,0,0.75,0,0)"/>
<path style="fill:none;stroke-width:1;stroke-linecap:round;stroke-linejoin:miter;stroke:rgb(50%,50%,50%);stroke-opacity:0.4;stroke-miterlimit:10;" d="M 472.729167 322.421875 L 261.6875 461.984375 " transform="matrix(0.75,0,0,0.75,0,0)"/>
<path style="fill:none;stroke-width:1;stroke-linecap:round;stroke-linejoin:miter;stroke:rgb(50%,50%,50%);stroke-opacity:0.4;stroke-miterlimit:10;" d="M 496.395833 335.578125 L 285.057292 483.53125 " transform="matrix(0.75,0,0,0.75,0,0)"/>
<path style="fill:none;stroke-width:1;stroke-linecap:round;stroke-linejoin:miter;stroke:rgb(50%,50%,50%);stroke-opacity:0.4;stroke-miterlimit:10;" d="M 521.322917 349.4375 L 310.03125 506.567708 " transform="matrix(0.75,0,0,0.75,0,0)"/>
<path style="fill:none;stroke-width:1;stroke-linecap:round;stroke-linejoin:miter;stroke:rgb(50%,50%,50%);stroke-opacity:0.4;stroke-miterlimit:10;" d="M 547.619792 364.052083 L 336.791667 531.244792 " transform="matrix(0.75,0,0,0.75,0,0)"/>
<path style="fill:none;stroke-width:1;stroke-linecap:round;stroke-linejoin:miter;stroke:rgb(50%,50%,50%);stroke-opacity:0.4;stroke-miterlimit:10;" d="M 575.390625 379.489583 L 365.536458 557.744792 " transform="matrix(0.75,0,0,0.75,0,0)"/>
<path style="fill:none;stroke-width:1;stroke-linecap:round;stroke-linejoin:miter;stroke:rgb(50%,50%,50%);stroke-opacity:0.4;stroke-miterlimit:10;" d="M 429.25 283.109375 L 215.697917 406.40625 " transform="matrix(0.75,0,0,0.75,0,0)"/>
<path style="fill:none;stroke-width:1;stroke-linecap:round;stroke-linejoin:miter;stroke:rgb(50%,50%,50%);stroke-opacity:0.4;stroke-miterlimit:10;" d="M 430.755208 232.421875 L 203.567708 349.59375 " transform="matrix(0.75,0,0,0.75,0,0)"/>
<path style="fill:none;stroke-width:1;stroke-linecap:round;stroke-linejoin:miter;stroke:rgb(50%,50%,50%);stroke-opacity:0.4;stroke-miterlimit:10;" d="M 432.416667 176.239583 L 189.734375 284.78125 " transform="matrix(0.75,0,0,0.75,0,0)"/>
<path style="fill:none;stroke-width:1;stroke-linecap:round;stroke-linejoin:miter;stroke:rgb(50%,50%,50%);stroke-opacity:0.4;stroke-miterlimit:10;" d="M 434.276042 113.625 L 173.796875 210.140625 " transform="matrix(0.75,0,0,0.75,0,0)"/>
<path style="fill:none;stroke-width:1.5;stroke-linecap:round;stroke-linejoin:miter;stroke:rgb(0%,0%,0%);stroke-opacity:1;stroke-miterlimit:10;" d="M 428.807292 298.005208 L 575.390625 379.489583 " transform="matrix(0.75,0,0,0.75,0,0)"/>
<path style="fill:none;stroke-width:1;stroke-linecap:round;stroke-linejoin:miter;stroke:rgb(50%,50%,50%);stroke-opacity:0.4;stroke-miterlimit:10;" d="M 429.25 283.109375 L 578.541667 363.5 " transform="matrix(0.75,0,0,0.75,0,0)"/>
<path style="fill:none;stroke-width:1;stroke-linecap:round;stroke-linejoin:miter;stroke:rgb(50%,50%,50%);stroke-opacity:0.4;stroke-miterlimit:10;" d="M 430.755208 232.421875 L 589.385417 308.458333 " transform="matrix(0.75,0,0,0.75,0,0)"/>
<path style="fill:none;stroke-width:1;stroke-linecap:round;stroke-linejoin:miter;stroke:rgb(50%,50%,50%);stroke-opacity:0.4;stroke-miterlimit:10;" d="M 432.416667 176.239583 L 601.635417 246.296875 " transform="matrix(0.75,0,0,0.75,0,0)"/>
<path style="fill:none;stroke-width:1;stroke-linecap:round;stroke-linejoin:miter;stroke:rgb(50%,50%,50%);stroke-opacity:0.4;stroke-miterlimit:10;" d="M 434.276042 113.625 L 615.578125 175.536458 " transform="matrix(0.75,0,0,0.75,0,0)"/>
<path style="fill:none;stroke-width:1;stroke-linecap:round;stroke-linejoin:miter;stroke:rgb(50%,50%,50%);stroke-opacity:0.4;stroke-miterlimit:10;" d="M 418.932292 303.885417 L 565.911458 387.541667 " transform="matrix(0.75,0,0,0.75,0,0)"/>
<path style="fill:none;stroke-width:1;stroke-linecap:round;stroke-linejoin:miter;stroke:rgb(50%,50%,50%);stroke-opacity:0.4;stroke-miterlimit:10;" d="M 376.895833 328.916667 L 525.140625 422.171875 " transform="matrix(0.75,0,0,0.75,0,0)"/>
<path style="fill:none;stroke-width:1;stroke-linecap:round;stroke-linejoin:miter;stroke:rgb(50%,50%,50%);stroke-opacity:0.4;stroke-miterlimit:10;" d="M 330.317708 356.645833 L 479.114583 461.270833 " transform="matrix(0.75,0,0,0.75,0,0)"/>
<path style="fill:none;stroke-width:1;stroke-linecap:round;stroke-linejoin:miter;stroke:rgb(50%,50%,50%);stroke-opacity:0.4;stroke-miterlimit:10;" d="M 278.432292 387.541667 L 426.75 505.75 " transform="matrix(0.75,0,0,0.75,0,0)"/>
<path style="fill:none;stroke-width:1;stroke-linecap:round;stroke-linejoin:miter;stroke:rgb(50%,50%,50%);stroke-opacity:0.4;stroke-miterlimit:10;" d="M 220.260417 422.171875 L 366.645833 556.802083 " transform="matrix(0.75,0,0,0.75,0,0)"/>
<path style="fill:none;stroke-width:1.5;stroke-linecap:round;stroke-linejoin:miter;stroke:rgb(0%,0%,0%);stroke-opacity:1;stroke-miterlimit:10;" d="M 428.807292 298.005208 L 435.453125 73.807292 " transform="matrix(0.75,0,0,0.75,0,0)"/>
<path style="fill:none;stroke-width:1;stroke-linecap:round;stroke-linejoin:miter;stroke:rgb(50%,50%,50%);stroke-opacity:0.4;stroke-miterlimit:10;" d="M 418.932292 303.885417 L 423.364583 77.697917 " transform="matrix(0.75,0,0,0.75,0,0)"/>
<path style="fill:none;stroke-width:1;stroke-linecap:round;stroke-linejoin:miter;stroke:rgb(50%,50%,50%);stroke-opacity:0.4;stroke-miterlimit:10;" d="M 376.895833 328.916667 L 371.135417 94.489583 " transform="matrix(0.75,0,0,0.75,0,0)"/>
<path style="fill:none;stroke-width:1;stroke-linecap:round;stroke-linejoin:miter;stroke:rgb(50%,50%,50%);stroke-opacity:0.4;stroke-miterlimit:10;" d="M 330.317708 356.645833 L 311.770833 113.583333 " transform="matrix(0.75,0,0,0.75,0,0)"/>
<path style="fill:none;stroke-width:1;stroke-linecap:round;stroke-linejoin:miter;stroke:rgb(50%,50%,50%);stroke-opacity:0.4;stroke-miterlimit:10;" d="M 278.432292 387.541667 L 243.692708 135.473958 " transform="matrix(0.75,0,0,0.75,0,0)"/>
<path style="fill:none;stroke-width:1;stroke-linecap:round;stroke-linejoin:miter;stroke:rgb(50%,50%,50%);stroke-opacity:0.4;stroke-miterlimit:10;" d="M 220.260417 422.171875 L 164.833333 160.833333 " transform="matrix(0.75,0,0,0.75,0,0)"/>
<path style="fill:none;stroke-width:1;stroke-linecap:round;stroke-linejoin:miter;stroke:rgb(50%,50%,50%);stroke-opacity:0.4;stroke-miterlimit:10;" d="M 428.807292 298.005208 L 435.453125 73.807292 " transform="matrix(0.75,0,0,0.75,0,0)"/>
<path style="fill:none;stroke-width:1;stroke-linecap:round;stroke-linejoin:miter;stroke:rgb(50%,50%,50%);stroke-opacity:0.4;stroke-miterlimit:10;" d="M 450.223958 309.911458 L 462.166667 81.703125 " transform="matrix(0.75,0,0,0.75,0,0)"/>
<path style="fill:none;stroke-width:1;stroke-linecap:round;stroke-linejoin:miter;stroke:rgb(50%,50%,50%);stroke-opacity:0.4;stroke-miterlimit:10;" d="M 472.729167 322.421875 L 490.567708 90.09375 " transform="matrix(0.75,0,0,0.75,0,0)"/>
<path style="fill:none;stroke-width:1;stroke-linecap:round;stroke-linejoin:miter;stroke:rgb(50%,50%,50%);stroke-opacity:0.4;stroke-miterlimit:10;" d="M 496.395833 335.578125 L 520.807292 99.03125 " transform="matrix(0.75,0,0,0.75,0,0)"/>
<path style="fill:none;stroke-width:1;stroke-linecap:round;stroke-linejoin:miter;stroke:rgb(50%,50%,50%);stroke-opacity:0.4;stroke-miterlimit:10;" d="M 521.322917 349.4375 L 553.083333 108.567708 " transform="matrix(0.75,0,0,0.75,0,0)"/>
<path style="fill:none;stroke-width:1;stroke-linecap:round;stroke-linejoin:miter;stroke:rgb(50%,50%,50%);stroke-opacity:0.4;stroke-miterlimit:10;" d="M 547.619792 364.052083 L 587.598958 118.770833 " transform="matrix(0.75,0,0,0.75,0,0)"/>
<path style="fill:none;stroke-width:1;stroke-linecap:round;stroke-linejoin:miter;stroke:rgb(50%,50%,50%);stroke-opacity:0.4;stroke-miterlimit:10;" d="M 575.390625 379.489583 L 624.609375 129.703125 " transform="matrix(0.75,0,0,0.75,0,0)"/>
<path style="fill:none;stroke-width:1.5;stroke-linecap:butt;stroke-linejoin:miter;stroke:rgb(100%,0%,0%);stroke-opacity:1;stroke-dasharray:1.5,3;stroke-miterlimit:10;" d="M 442.197917 265.234375 L 413.479167 252.213542 L 442.197917 265.234375 L 465.8125 229.53125 L 442.197917 265.234375 L 426.260417 301.234375 L 442.197917 265.234375 L 529.328125 276.739583 L 442.197917 265.234375 L 409.390625 316.645833 L 442.197917 265.234375 L 411.432292 216.0625 " transform="matrix(0.75,0,0,0.75,0,0)"/>
<path style=" stroke:none;fill-rule:nonzero;fill:rgb(0%,0%,0%);fill-opacity:1;" d="M 335.023438 198.925781 C 335.023438 203.425781 328.273438 203.425781 328.273438 198.925781 C 328.273438 194.425781 335.023438 194.425781 335.023438 198.925781 "/>
<path style=" stroke:none;fill-rule:nonzero;fill:rgb(0%,0%,0%);fill-opacity:1;" d="M 312.359375 189.160156 C 312.359375 192.160156 307.859375 192.160156 307.859375 189.160156 C 307.859375 186.160156 312.359375 186.160156 312.359375 189.160156 "/>
<path style=" stroke:none;fill-rule:nonzero;fill:rgb(0%,0%,0%);fill-opacity:1;" d="M 351.609375 172.148438 C 351.609375 175.148438 347.109375 175.148438 347.109375 172.148438 C 347.109375 169.148438 351.609375 169.148438 351.609375 172.148438 "/>
<path style=" stroke:none;fill-rule:nonzero;fill:rgb(0%,0%,0%);fill-opacity:1;" d="M 321.945313 225.925781 C 321.945313 228.925781 317.445313 228.925781 317.445313 225.925781 C 317.445313 222.925781 321.945313 222.925781 321.945313 225.925781 "/>
<path style=" stroke:none;fill-rule:nonzero;fill:rgb(0%,0%,0%);fill-opacity:1;" d="M 399.246094 207.554688 C 399.246094 210.554688 394.746094 210.554688 394.746094 207.554688 C 394.746094 204.554688 399.246094 204.554688 399.246094 207.554688 "/>
<path style=" stroke:none;fill-rule:nonzero;fill:rgb(0%,0%,0%);fill-opacity:1;" d="M 309.292969 237.484375 C 309.292969 240.484375 304.792969 240.484375 304.792969 237.484375 C 304.792969 234.484375 309.292969 234.484375 309.292969 237.484375 "/>
<path style=" stroke:none;fill-rule:nonzero;fill:rgb(0%,0%,0%);fill-opacity:1;" d="M 310.824219 162.046875 C 310.824219 165.046875 306.324219 165.046875 306.324219 162.046875 C 306.324219 159.046875 310.824219 159.046875 310.824219 162.046875 "/>
<path style="fill:none;stroke-width:1.5;stroke-linecap:butt;stroke-linejoin:miter;stroke:rgb(100%,0%,0%);stroke-opacity:1;stroke-dasharray:1.5,3;stroke-miterlimit:10;" d="M 453.041667 409.854167 L 462.802083 412.125 L 453.041667 409.854167 L 449.260417 378.171875 L 453.041667 409.854167 L 440.979167 393.817708 L 453.041667 409.854167 L 454.015625 458.208333 L 453.041667 409.854167 L 457.333333 407.338542 L 453.041667 409.854167 L 453.708333 408.036458 " transform="matrix(0.75,0,0,0.75,0,0)"/>
<path style=" stroke:none;fill-rule:nonzero;fill:rgb(0%,0%,0%);fill-opacity:1;" d="M 343.15625 307.390625 C 343.15625 311.890625 336.40625 311.890625 336.40625 307.390625 C 336.40625 302.890625 343.15625 302.890625 343.15625 307.390625 "/>
<path style=" stroke:none;fill-rule:nonzero;fill:rgb(0%,0%,0%);fill-opacity:1;" d="M 349.351563 309.09375 C 349.351563 312.09375 344.851563 312.09375 344.851563 309.09375 C 344.851563 306.09375 349.351563 306.09375 349.351563 309.09375 "/>
<path style=" stroke:none;fill-rule:nonzero;fill:rgb(0%,0%,0%);fill-opacity:1;" d="M 339.195313 283.628906 C 339.195313 286.628906 334.695313 286.628906 334.695313 283.628906 C 334.695313 280.628906 339.195313 280.628906 339.195313 283.628906 "/>
<path style=" stroke:none;fill-rule:nonzero;fill:rgb(0%,0%,0%);fill-opacity:1;" d="M 332.984375 295.363281 C 332.984375 298.363281 328.484375 298.363281 328.484375 295.363281 C 328.484375 292.363281 332.984375 292.363281 332.984375 295.363281 "/>
<path style=" stroke:none;fill-rule:nonzero;fill:rgb(0%,0%,0%);fill-opacity:1;" d="M 342.761719 343.65625 C 342.761719 346.65625 338.261719 346.65625 338.261719 343.65625 C 338.261719 340.65625 342.761719 340.65625 342.761719 343.65625 "/>
<path style=" stroke:none;fill-rule:nonzero;fill:rgb(0%,0%,0%);fill-opacity:1;" d="M 345.25 305.503906 C 345.25 308.503906 340.75 308.503906 340.75 305.503906 C 340.75 302.503906 345.25 302.503906 345.25 305.503906 "/>
<path style=" stroke:none;fill-rule:nonzero;fill:rgb(0%,0%,0%);fill-opacity:1;" d="M 342.53125 306.027344 C 342.53125 309.027344 338.03125 309.027344 338.03125 306.027344 C 338.03125 303.027344 342.53125 303.027344 342.53125 306.027344 "/>
<path style="fill:none;stroke-width:1.5;stroke-linecap:butt;stroke-linejoin:miter;stroke:rgb(100%,0%,0%);stroke-opacity:1;stroke-dasharray:1.5,3;stroke-miterlimit:10;" d="M 296.40625 270.677083 L 310.375 236.864583 L 296.40625 270.677083 L 228.109375 302.125 L 296.40625 270.677083 L 318.619792 288.859375 L 296.40625 270.677083 L 319.614583 262.713542 L 296.40625 270.677083 L 327.875 306.59375 L 296.40625 270.677083 L 264.260417 219.296875 " transform="matrix(0.75,0,0,0.75,0,0)"/>
<path style=" stroke:none;fill-rule:nonzero;fill:rgb(0%,0%,0%);fill-opacity:1;" d="M 225.679688 203.007813 C 225.679688 207.507813 218.929688 207.507813 218.929688 203.007813 C 218.929688 198.507813 225.679688 198.507813 225.679688 203.007813 "/>
<path style=" stroke:none;fill-rule:nonzero;fill:rgb(0%,0%,0%);fill-opacity:1;" d="M 235.03125 177.648438 C 235.03125 180.648438 230.53125 180.648438 230.53125 177.648438 C 230.53125 174.648438 235.03125 174.648438 235.03125 177.648438 "/>
<path style=" stroke:none;fill-rule:nonzero;fill:rgb(0%,0%,0%);fill-opacity:1;" d="M 173.332031 226.59375 C 173.332031 229.59375 168.832031 229.59375 168.832031 226.59375 C 168.832031 223.59375 173.332031 223.59375 173.332031 226.59375 "/>
<path style=" stroke:none;fill-rule:nonzero;fill:rgb(0%,0%,0%);fill-opacity:1;" d="M 241.214844 216.644531 C 241.214844 219.644531 236.714844 219.644531 236.714844 216.644531 C 236.714844 213.644531 241.214844 213.644531 241.214844 216.644531 "/>
<path style=" stroke:none;fill-rule:nonzero;fill:rgb(0%,0%,0%);fill-opacity:1;" d="M 241.960938 197.035156 C 241.960938 200.035156 237.460938 200.035156 237.460938 197.035156 C 237.460938 194.035156 241.960938 194.035156 241.960938 197.035156 "/>
<path style=" stroke:none;fill-rule:nonzero;fill:rgb(0%,0%,0%);fill-opacity:1;" d="M 248.15625 229.945313 C 248.15625 232.945313 243.65625 232.945313 243.65625 229.945313 C 243.65625 226.945313 248.15625 226.945313 248.15625 229.945313 "/>
<path style=" stroke:none;fill-rule:nonzero;fill:rgb(0%,0%,0%);fill-opacity:1;" d="M 200.445313 164.472656 C 200.445313 167.472656 195.945313 167.472656 195.945313 164.472656 C 195.945313 161.472656 200.445313 161.472656 200.445313 164.472656 "/>
</g>
</svg>
